G04 Layer: TopLayer*
G04 EasyEDA v6.4.5, 2020-09-15T17:45:32--6:00*
G04 ee41db2f30d448a8b63ff783f68df95d,ded4796badf941d083ba3d0fd9e507c2,10*
G04 Gerber Generator version 0.2*
G04 Scale: 100 percent, Rotated: No, Reflected: No *
G04 Dimensions in millimeters *
G04 leading zeros omitted , absolute positions ,3 integer and 3 decimal *
%FSLAX33Y33*%
%MOMM*%
G90*
G71D02*

%ADD11C,0.259994*%
%ADD12C,0.610006*%
%ADD13C,1.599997*%
%ADD14C,1.930400*%
%ADD15C,1.524000*%
%ADD16C,2.399995*%

%LPD*%
G54D11*
G01X6858Y18288D02*
G01X15118Y18288D01*
G01X31529Y18288D01*
G01X41704Y28460D01*
G01X65151Y32893D02*
G01X63484Y34559D01*
G01X32402Y34559D01*
G01X32402Y34559D01*
G01X26543Y40419D01*
G01X19939Y40419D02*
G01X26220Y34135D01*
G01X58828Y34135D01*
G01X60071Y32893D01*
G01X56944Y28460D02*
G01X60071Y31589D01*
G01X60071Y32893D01*
G01X43053Y31716D02*
G01X46194Y31716D01*
G01X47371Y32893D01*
G01X46784Y28460D02*
G01X49911Y31589D01*
G01X49911Y32893D01*
G01X49324Y28460D02*
G01X52451Y31589D01*
G01X52451Y32893D01*
G01X51864Y28460D02*
G01X54991Y31589D01*
G01X54991Y32893D01*
G01X54404Y28460D02*
G01X57531Y31589D01*
G01X57531Y32893D01*
G01X67691Y32893D02*
G01X62283Y38300D01*
G01X47546Y38300D01*
G01X44361Y41488D01*
G01X17706Y41488D01*
G01X16637Y40419D01*
G01X6985Y6223D02*
G01X61358Y6223D01*
G01X64564Y3017D01*
G01X47371Y40513D02*
G01X49911Y40513D01*
G01X49911Y40513D02*
G01X52451Y40513D01*
G01X52451Y40513D02*
G01X54991Y40513D01*
G01X54991Y40513D02*
G01X57531Y40513D01*
G01X57531Y40513D02*
G01X60071Y40513D01*
G01X60071Y40513D02*
G01X62611Y40513D01*
G01X65151Y40513D02*
G01X67691Y40513D01*
G01X6858Y28448D02*
G01X18829Y28448D01*
G01X18844Y28460D01*
G01X36449Y31716D02*
G01X39751Y31716D01*
G01X16637Y31716D02*
G01X19939Y31716D01*
G01X19939Y31716D02*
G01X23241Y31716D01*
G01X23241Y31716D02*
G01X26543Y31716D01*
G01X26543Y31716D02*
G01X29845Y31716D01*
G01X29845Y31716D02*
G01X33147Y31716D01*
G01X33147Y31716D02*
G01X36449Y31716D01*
G01X43053Y40416D02*
G01X40406Y37769D01*
G01X40406Y35323D01*
G54D13*
G01X47371Y32893D03*
G01X49911Y32893D03*
G01X62611Y32893D03*
G01X65151Y32893D03*
G01X52451Y32893D03*
G01X54991Y32893D03*
G01X60071Y32893D03*
G01X57531Y32893D03*
G01X67691Y32893D03*
G01X67691Y40513D03*
G01X65151Y40513D03*
G01X62611Y40513D03*
G01X60071Y40513D03*
G01X57531Y40513D03*
G01X54991Y40513D03*
G01X52451Y40513D03*
G01X49911Y40513D03*
G01X47371Y40513D03*
G54D14*
G01X18844Y3018D03*
G01X21384Y3018D03*
G01X23924Y3018D03*
G01X26464Y3018D03*
G01X29004Y3018D03*
G01X31544Y3018D03*
G01X34084Y3018D03*
G01X36624Y3018D03*
G01X39164Y3018D03*
G01X41704Y3018D03*
G01X44244Y3018D03*
G01X46784Y3018D03*
G01X49324Y3018D03*
G01X51864Y3018D03*
G01X54404Y3018D03*
G01X56944Y3018D03*
G01X59484Y3018D03*
G01X62024Y3018D03*
G01X64564Y3018D03*
G01X18844Y28461D03*
G01X21384Y28461D03*
G01X23924Y28461D03*
G01X26464Y28461D03*
G01X29004Y28461D03*
G01X31544Y28461D03*
G01X34084Y28461D03*
G01X36624Y28461D03*
G01X39164Y28461D03*
G01X41704Y28461D03*
G01X44244Y28461D03*
G01X46784Y28461D03*
G01X49324Y28461D03*
G01X51864Y28461D03*
G01X54404Y28461D03*
G01X56944Y28461D03*
G01X59484Y28461D03*
G01X62024Y28461D03*
G01X64564Y28461D03*
G54D15*
G01X43053Y40417D03*
G01X43053Y31717D03*
G01X39751Y31717D03*
G01X39751Y40418D03*
G01X33147Y31717D03*
G01X33147Y40418D03*
G01X29845Y31717D03*
G01X29845Y40418D03*
G01X23241Y31717D03*
G01X23241Y40418D03*
G01X19939Y31717D03*
G01X19939Y40418D03*
G01X36449Y31717D03*
G01X36449Y40418D03*
G01X26543Y31717D03*
G01X26543Y40418D03*
G01X16637Y31717D03*
G01X16637Y40418D03*
G54D16*
G01X6858Y28448D03*
G01X6858Y23368D03*
G01X6858Y18288D03*
G01X6985Y11303D03*
G01X6985Y6223D03*
G54D12*
G01X40406Y35323D03*
M00*
M02*
