G04 Layer: TopSilkLayer*
G04 EasyEDA v6.4.5, 2020-09-15T17:45:32--6:00*
G04 ee41db2f30d448a8b63ff783f68df95d,ded4796badf941d083ba3d0fd9e507c2,10*
G04 Gerber Generator version 0.2*
G04 Scale: 100 percent, Rotated: No, Reflected: No *
G04 Dimensions in millimeters *
G04 leading zeros omitted , absolute positions ,3 integer and 3 decimal *
%FSLAX33Y33*%
%MOMM*%
G90*
G71D02*

%ADD10C,0.254000*%
%ADD18C,0.406400*%
%ADD19C,0.150114*%
%ADD20C,0.152400*%
%ADD21C,0.081280*%
%ADD22C,0.154432*%

%LPD*%
G54D10*
G01X45339Y38608D02*
G01X45974Y38608D01*
G01X45974Y34798D01*
G01X45339Y34798D01*
G01X45339Y31623D01*
G01X69723Y31623D01*
G01X69723Y41783D01*
G01X45339Y41783D01*
G01X45339Y38608D01*
G01X45339Y34798D01*
G01X66929Y34798D02*
G01X68453Y34798D01*
G01X68453Y38608D01*
G01X66929Y38608D01*
G01X66929Y34798D01*
G01X64389Y34798D02*
G01X65913Y34798D01*
G01X65913Y38608D01*
G01X64389Y38608D01*
G01X64389Y34798D01*
G01X61849Y34798D02*
G01X63373Y34798D01*
G01X63373Y38608D01*
G01X61849Y38608D01*
G01X61849Y34798D01*
G01X59309Y34798D02*
G01X60833Y34798D01*
G01X60833Y38608D01*
G01X59309Y38608D01*
G01X59309Y34798D01*
G01X56769Y34798D02*
G01X58293Y34798D01*
G01X58293Y38608D01*
G01X56769Y38608D01*
G01X56769Y34798D01*
G01X54229Y34798D02*
G01X55753Y34798D01*
G01X55753Y38608D01*
G01X54229Y38608D01*
G01X54229Y34798D01*
G01X51689Y34798D02*
G01X53213Y34798D01*
G01X53213Y38608D01*
G01X51689Y38608D01*
G01X51689Y34798D01*
G01X49149Y34798D02*
G01X50673Y34798D01*
G01X50673Y38608D01*
G01X49149Y38608D01*
G01X49149Y34798D01*
G01X46609Y34798D02*
G01X48133Y34798D01*
G01X48133Y38608D01*
G01X46609Y38608D01*
G01X46609Y34798D01*
G54D18*
G01X18864Y23091D02*
G01X18864Y19251D01*
G01X23983Y19251D01*
G01X23983Y17972D01*
G01X18864Y17972D01*
G01X18864Y16692D01*
G01X23983Y16692D01*
G01X23983Y15411D01*
G01X18864Y15411D01*
G01X18864Y14132D01*
G01X23983Y14132D01*
G01X23983Y12851D01*
G01X18864Y12851D01*
G01X18864Y11571D01*
G01X26544Y11571D01*
G01X26544Y17972D01*
G54D10*
G01X14282Y29931D02*
G01X69399Y29931D01*
G01X69399Y1484D01*
G01X14282Y1484D01*
G01X14282Y29931D01*
G01X43053Y38481D02*
G01X43053Y39116D01*
G01X43053Y33655D02*
G01X43053Y33020D01*
G01X44302Y38417D02*
G01X44302Y33717D01*
G01X41802Y33717D01*
G01X41802Y38417D01*
G01X44302Y38417D01*
G01X39751Y33654D02*
G01X39751Y33019D01*
G01X39751Y38480D02*
G01X39751Y39115D01*
G01X38501Y33718D02*
G01X38501Y38418D01*
G01X41001Y38418D01*
G01X41001Y33718D01*
G01X38501Y33718D01*
G01X33147Y33654D02*
G01X33147Y33019D01*
G01X33147Y38480D02*
G01X33147Y39115D01*
G01X31897Y33718D02*
G01X31897Y38418D01*
G01X34397Y38418D01*
G01X34397Y33718D01*
G01X31897Y33718D01*
G01X29845Y33654D02*
G01X29845Y33019D01*
G01X29845Y38480D02*
G01X29845Y39115D01*
G01X28595Y33718D02*
G01X28595Y38418D01*
G01X31095Y38418D01*
G01X31095Y33718D01*
G01X28595Y33718D01*
G01X23241Y33654D02*
G01X23241Y33019D01*
G01X23241Y38480D02*
G01X23241Y39115D01*
G01X21991Y33718D02*
G01X21991Y38418D01*
G01X24491Y38418D01*
G01X24491Y33718D01*
G01X21991Y33718D01*
G01X19939Y33654D02*
G01X19939Y33019D01*
G01X19939Y38480D02*
G01X19939Y39115D01*
G01X18689Y33718D02*
G01X18689Y38418D01*
G01X21189Y38418D01*
G01X21189Y33718D01*
G01X18689Y33718D01*
G01X36449Y33654D02*
G01X36449Y33019D01*
G01X36449Y38480D02*
G01X36449Y39115D01*
G01X35199Y33718D02*
G01X35199Y38418D01*
G01X37699Y38418D01*
G01X37699Y33718D01*
G01X35199Y33718D01*
G01X26543Y33654D02*
G01X26543Y33019D01*
G01X26543Y38480D02*
G01X26543Y39115D01*
G01X25293Y33718D02*
G01X25293Y38418D01*
G01X27793Y38418D01*
G01X27793Y33718D01*
G01X25293Y33718D01*
G01X16637Y33654D02*
G01X16637Y33019D01*
G01X16637Y38480D02*
G01X16637Y39115D01*
G01X15387Y33718D02*
G01X15387Y38418D01*
G01X17887Y38418D01*
G01X17887Y33718D01*
G01X15387Y33718D01*
G01X11757Y30898D02*
G01X11757Y15837D01*
G01X11757Y30898D02*
G01X1758Y30898D01*
G01X1758Y30868D02*
G01X1758Y15867D01*
G01X11757Y15837D02*
G01X1758Y15837D01*
G01X9398Y30898D02*
G01X9398Y15837D01*
G01X11050Y31496D02*
G01X11050Y30895D01*
G01X9861Y31496D02*
G01X11050Y31496D01*
G01X9861Y30895D02*
G01X9861Y31496D01*
G01X2286Y31496D02*
G01X3430Y31496D01*
G01X3430Y30895D01*
G01X2286Y30895D02*
G01X2286Y31496D01*
G01X11757Y23944D02*
G01X11757Y22699D01*
G01X3019Y20177D02*
G01X1797Y18955D01*
G01X1797Y18856D01*
G01X1797Y17688D02*
G01X2991Y16494D01*
G01X3019Y16494D01*
G01X3019Y21720D02*
G01X1896Y22844D01*
G01X1797Y22844D01*
G01X1797Y24088D02*
G01X3019Y25310D01*
G01X3019Y25435D01*
G01X3019Y26781D02*
G01X1800Y28000D01*
G01X1797Y28000D01*
G01X1797Y28991D02*
G01X2991Y30184D01*
G01X3019Y30184D01*
G01X3019Y15890D02*
G01X3019Y30820D01*
G01X4389Y30898D02*
G01X4355Y30864D01*
G01X4355Y15837D01*
G01X10586Y30898D02*
G01X10586Y15837D01*
G01X11884Y13753D02*
G01X11884Y3863D01*
G01X11884Y13753D02*
G01X1885Y13753D01*
G01X1885Y13723D02*
G01X1885Y3772D01*
G01X11884Y3772D02*
G01X1885Y3772D01*
G01X9525Y13753D02*
G01X9525Y3772D01*
G01X11177Y14351D02*
G01X11177Y13750D01*
G01X9988Y14351D02*
G01X11177Y14351D01*
G01X9988Y13750D02*
G01X9988Y14351D01*
G01X2413Y14351D02*
G01X3557Y14351D01*
G01X3557Y13750D01*
G01X2413Y13750D02*
G01X2413Y14351D01*
G01X3146Y4575D02*
G01X2023Y5699D01*
G01X1924Y5699D01*
G01X1924Y6943D02*
G01X3146Y8165D01*
G01X3146Y8290D01*
G01X3146Y9636D02*
G01X1927Y10855D01*
G01X1924Y10855D01*
G01X1924Y11846D02*
G01X3118Y13039D01*
G01X3146Y13039D01*
G01X3146Y13753D02*
G01X3146Y3772D01*
G01X4516Y13753D02*
G01X4482Y13719D01*
G01X4482Y3772D01*
G01X10713Y13753D02*
G01X10713Y3772D01*
G54D20*
G01X58257Y43035D02*
G01X58153Y43139D01*
G01X57998Y43190D01*
G01X57790Y43190D01*
G01X57635Y43139D01*
G01X57531Y43035D01*
G01X57531Y42931D01*
G01X57581Y42826D01*
G01X57635Y42773D01*
G01X57739Y42722D01*
G01X58051Y42618D01*
G01X58153Y42567D01*
G01X58206Y42514D01*
G01X58257Y42410D01*
G01X58257Y42255D01*
G01X58153Y42151D01*
G01X57998Y42100D01*
G01X57790Y42100D01*
G01X57635Y42151D01*
G01X57531Y42255D01*
G01X58600Y43190D02*
G01X58861Y42100D01*
G01X59121Y43190D02*
G01X58861Y42100D01*
G01X59121Y43190D02*
G01X59380Y42100D01*
G01X59639Y43190D02*
G01X59380Y42100D01*
G01X59982Y42981D02*
G01X60086Y43035D01*
G01X60243Y43190D01*
G01X60243Y42100D01*
G01X46748Y39392D02*
G01X46700Y39370D01*
G01X46654Y39324D01*
G01X46631Y39278D01*
G01X46609Y39207D01*
G01X46609Y39093D01*
G01X46631Y39024D01*
G01X46654Y38976D01*
G01X46700Y38930D01*
G01X46748Y38907D01*
G01X46840Y38907D01*
G01X46885Y38930D01*
G01X46931Y38976D01*
G01X46954Y39024D01*
G01X46977Y39093D01*
G01X46977Y39207D01*
G01X46954Y39278D01*
G01X46931Y39324D01*
G01X46885Y39370D01*
G01X46840Y39392D01*
G01X46748Y39392D01*
G01X47129Y39392D02*
G01X47129Y38907D01*
G01X47129Y39392D02*
G01X47454Y38907D01*
G01X47454Y39392D02*
G01X47454Y38907D01*
G01X47371Y34348D02*
G01X47416Y34371D01*
G01X47485Y34439D01*
G01X47485Y33954D01*
G01X49679Y34325D02*
G01X49679Y34348D01*
G01X49702Y34394D01*
G01X49725Y34417D01*
G01X49771Y34439D01*
G01X49865Y34439D01*
G01X49911Y34417D01*
G01X49933Y34394D01*
G01X49956Y34348D01*
G01X49956Y34302D01*
G01X49933Y34254D01*
G01X49888Y34185D01*
G01X49657Y33954D01*
G01X49979Y33954D01*
G01X52242Y34439D02*
G01X52496Y34439D01*
G01X52359Y34254D01*
G01X52428Y34254D01*
G01X52473Y34231D01*
G01X52496Y34208D01*
G01X52519Y34140D01*
G01X52519Y34094D01*
G01X52496Y34023D01*
G01X52451Y33977D01*
G01X52382Y33954D01*
G01X52311Y33954D01*
G01X52242Y33977D01*
G01X52219Y34000D01*
G01X52197Y34048D01*
G01X54968Y34439D02*
G01X54737Y34117D01*
G01X55082Y34117D01*
G01X54968Y34439D02*
G01X54968Y33954D01*
G01X57553Y34439D02*
G01X57322Y34439D01*
G01X57299Y34231D01*
G01X57322Y34254D01*
G01X57391Y34277D01*
G01X57462Y34277D01*
G01X57531Y34254D01*
G01X57576Y34208D01*
G01X57599Y34140D01*
G01X57599Y34094D01*
G01X57576Y34023D01*
G01X57531Y33977D01*
G01X57462Y33954D01*
G01X57391Y33954D01*
G01X57322Y33977D01*
G01X57299Y34000D01*
G01X57277Y34048D01*
G01X60093Y34371D02*
G01X60071Y34417D01*
G01X60002Y34439D01*
G01X59956Y34439D01*
G01X59885Y34417D01*
G01X59839Y34348D01*
G01X59817Y34231D01*
G01X59817Y34117D01*
G01X59839Y34023D01*
G01X59885Y33977D01*
G01X59956Y33954D01*
G01X59979Y33954D01*
G01X60048Y33977D01*
G01X60093Y34023D01*
G01X60116Y34094D01*
G01X60116Y34117D01*
G01X60093Y34185D01*
G01X60048Y34231D01*
G01X59979Y34254D01*
G01X59956Y34254D01*
G01X59885Y34231D01*
G01X59839Y34185D01*
G01X59817Y34117D01*
G01X62679Y34439D02*
G01X62448Y33954D01*
G01X62357Y34439D02*
G01X62679Y34439D01*
G01X65011Y34439D02*
G01X64942Y34417D01*
G01X64919Y34371D01*
G01X64919Y34325D01*
G01X64942Y34277D01*
G01X64988Y34254D01*
G01X65082Y34231D01*
G01X65151Y34208D01*
G01X65196Y34163D01*
G01X65219Y34117D01*
G01X65219Y34048D01*
G01X65196Y34000D01*
G01X65173Y33977D01*
G01X65105Y33954D01*
G01X65011Y33954D01*
G01X64942Y33977D01*
G01X64919Y34000D01*
G01X64897Y34048D01*
G01X64897Y34117D01*
G01X64919Y34163D01*
G01X64965Y34208D01*
G01X65036Y34231D01*
G01X65128Y34254D01*
G01X65173Y34277D01*
G01X65196Y34325D01*
G01X65196Y34371D01*
G01X65173Y34417D01*
G01X65105Y34439D01*
G01X65011Y34439D01*
G01X67736Y34277D02*
G01X67713Y34208D01*
G01X67668Y34163D01*
G01X67599Y34140D01*
G01X67576Y34140D01*
G01X67505Y34163D01*
G01X67459Y34208D01*
G01X67437Y34277D01*
G01X67437Y34302D01*
G01X67459Y34371D01*
G01X67505Y34417D01*
G01X67576Y34439D01*
G01X67599Y34439D01*
G01X67668Y34417D01*
G01X67713Y34371D01*
G01X67736Y34277D01*
G01X67736Y34163D01*
G01X67713Y34048D01*
G01X67668Y33977D01*
G01X67599Y33954D01*
G01X67551Y33954D01*
G01X67482Y33977D01*
G01X67459Y34023D01*
G01X12816Y13208D02*
G01X13596Y13208D01*
G01X13751Y13258D01*
G01X13855Y13362D01*
G01X13906Y13520D01*
G01X13906Y13624D01*
G01X13855Y13779D01*
G01X13751Y13883D01*
G01X13596Y13934D01*
G01X12816Y13934D01*
G01X13075Y14330D02*
G01X13025Y14330D01*
G01X12920Y14381D01*
G01X12867Y14434D01*
G01X12816Y14538D01*
G01X12816Y14744D01*
G01X12867Y14848D01*
G01X12920Y14902D01*
G01X13025Y14952D01*
G01X13129Y14952D01*
G01X13233Y14902D01*
G01X13388Y14798D01*
G01X13906Y14277D01*
G01X13906Y15006D01*
G54D21*
G01X18529Y3868D02*
G01X18529Y4351D01*
G01X18882Y4086D01*
G01X18882Y4218D01*
G01X18925Y4305D01*
G01X18968Y4351D01*
G01X19100Y4394D01*
G01X19187Y4394D01*
G01X19319Y4351D01*
G01X19408Y4262D01*
G01X19451Y4130D01*
G01X19451Y3997D01*
G01X19408Y3868D01*
G01X19364Y3822D01*
G01X19276Y3779D01*
G01X18529Y4683D02*
G01X19451Y5034D01*
G01X18529Y5384D02*
G01X19451Y5034D01*
G01X18529Y5763D02*
G01X18529Y6245D01*
G01X18882Y5981D01*
G01X18882Y6113D01*
G01X18925Y6202D01*
G01X18968Y6245D01*
G01X19100Y6289D01*
G01X19187Y6289D01*
G01X19319Y6245D01*
G01X19408Y6156D01*
G01X19451Y6024D01*
G01X19451Y5895D01*
G01X19408Y5763D01*
G01X19364Y5720D01*
G01X19276Y5674D01*
G01X21069Y4165D02*
G01X21991Y4165D01*
G01X21069Y4165D02*
G01X21069Y4737D01*
G01X21508Y4165D02*
G01X21508Y4516D01*
G01X21991Y4165D02*
G01X21991Y4737D01*
G01X21069Y5026D02*
G01X21991Y5026D01*
G01X21069Y5026D02*
G01X21991Y5638D01*
G01X21069Y5638D02*
G01X21991Y5638D01*
G01X23741Y4394D02*
G01X23655Y4305D01*
G01X23609Y4175D01*
G01X23609Y3997D01*
G01X23655Y3868D01*
G01X23741Y3779D01*
G01X23830Y3779D01*
G01X23916Y3822D01*
G01X23962Y3868D01*
G01X24005Y3954D01*
G01X24091Y4218D01*
G01X24137Y4305D01*
G01X24180Y4351D01*
G01X24267Y4394D01*
G01X24399Y4394D01*
G01X24488Y4305D01*
G01X24531Y4175D01*
G01X24531Y3997D01*
G01X24488Y3868D01*
G01X24399Y3779D01*
G01X23609Y4683D02*
G01X24531Y5034D01*
G01X23609Y5384D02*
G01X24531Y5034D01*
G01X23609Y5674D02*
G01X24531Y5674D01*
G01X23609Y5674D02*
G01X23609Y6070D01*
G01X23655Y6202D01*
G01X23698Y6245D01*
G01X23784Y6289D01*
G01X23916Y6289D01*
G01X24005Y6245D01*
G01X24048Y6202D01*
G01X24091Y6070D01*
G01X24091Y5674D01*
G01X26281Y4394D02*
G01X26195Y4305D01*
G01X26149Y4175D01*
G01X26149Y3997D01*
G01X26195Y3868D01*
G01X26281Y3779D01*
G01X26370Y3779D01*
G01X26456Y3822D01*
G01X26502Y3868D01*
G01X26545Y3954D01*
G01X26631Y4218D01*
G01X26677Y4305D01*
G01X26720Y4351D01*
G01X26807Y4394D01*
G01X26939Y4394D01*
G01X27028Y4305D01*
G01X27071Y4175D01*
G01X27071Y3997D01*
G01X27028Y3868D01*
G01X26939Y3779D01*
G01X26149Y4683D02*
G01X27071Y5034D01*
G01X26149Y5384D02*
G01X27071Y5034D01*
G01X26149Y5674D02*
G01X27071Y5674D01*
G01X26149Y5674D02*
G01X27071Y6289D01*
G01X26149Y6289D02*
G01X27071Y6289D01*
G01X28689Y3393D02*
G01X29611Y3393D01*
G01X28689Y3947D02*
G01X28735Y3858D01*
G01X28821Y3771D01*
G01X28910Y3726D01*
G01X29039Y3683D01*
G01X29260Y3683D01*
G01X29392Y3726D01*
G01X29479Y3771D01*
G01X29568Y3858D01*
G01X29611Y3947D01*
G01X29611Y4122D01*
G01X29568Y4208D01*
G01X29479Y4297D01*
G01X29392Y4340D01*
G01X29260Y4384D01*
G01X29039Y4384D01*
G01X28910Y4340D01*
G01X28821Y4297D01*
G01X28735Y4208D01*
G01X28689Y4122D01*
G01X28689Y3947D01*
G01X28689Y4762D02*
G01X28689Y5245D01*
G01X29039Y4980D01*
G01X29039Y5113D01*
G01X29085Y5201D01*
G01X29128Y5245D01*
G01X29260Y5288D01*
G01X29347Y5288D01*
G01X29479Y5245D01*
G01X29568Y5156D01*
G01X29611Y5026D01*
G01X29611Y4894D01*
G01X29568Y4762D01*
G01X29522Y4719D01*
G01X29436Y4673D01*
G01X28689Y6017D02*
G01X29303Y5577D01*
G01X29303Y6235D01*
G01X28689Y6017D02*
G01X29611Y6017D01*
G01X31229Y3393D02*
G01X32151Y3393D01*
G01X31229Y3947D02*
G01X31275Y3858D01*
G01X31361Y3771D01*
G01X31450Y3726D01*
G01X31579Y3683D01*
G01X31800Y3683D01*
G01X31932Y3726D01*
G01X32019Y3771D01*
G01X32108Y3858D01*
G01X32151Y3947D01*
G01X32151Y4122D01*
G01X32108Y4208D01*
G01X32019Y4297D01*
G01X31932Y4340D01*
G01X31800Y4384D01*
G01X31579Y4384D01*
G01X31450Y4340D01*
G01X31361Y4297D01*
G01X31275Y4208D01*
G01X31229Y4122D01*
G01X31229Y3947D01*
G01X31229Y4762D02*
G01X31229Y5245D01*
G01X31579Y4980D01*
G01X31579Y5113D01*
G01X31625Y5201D01*
G01X31668Y5245D01*
G01X31800Y5288D01*
G01X31887Y5288D01*
G01X32019Y5245D01*
G01X32108Y5156D01*
G01X32151Y5026D01*
G01X32151Y4894D01*
G01X32108Y4762D01*
G01X32062Y4719D01*
G01X31976Y4673D01*
G01X31229Y6106D02*
G01X31229Y5666D01*
G01X31625Y5623D01*
G01X31579Y5666D01*
G01X31536Y5798D01*
G01X31536Y5928D01*
G01X31579Y6060D01*
G01X31668Y6149D01*
G01X31800Y6192D01*
G01X31887Y6192D01*
G01X32019Y6149D01*
G01X32108Y6060D01*
G01X32151Y5928D01*
G01X32151Y5798D01*
G01X32108Y5666D01*
G01X32062Y5623D01*
G01X31976Y5577D01*
G01X33769Y3393D02*
G01X34691Y3393D01*
G01X33769Y3947D02*
G01X33815Y3858D01*
G01X33901Y3771D01*
G01X33990Y3726D01*
G01X34119Y3683D01*
G01X34340Y3683D01*
G01X34472Y3726D01*
G01X34559Y3771D01*
G01X34648Y3858D01*
G01X34691Y3947D01*
G01X34691Y4122D01*
G01X34648Y4208D01*
G01X34559Y4297D01*
G01X34472Y4340D01*
G01X34340Y4384D01*
G01X34119Y4384D01*
G01X33990Y4340D01*
G01X33901Y4297D01*
G01X33815Y4208D01*
G01X33769Y4122D01*
G01X33769Y3947D01*
G01X33769Y4762D02*
G01X33769Y5245D01*
G01X34119Y4980D01*
G01X34119Y5113D01*
G01X34165Y5201D01*
G01X34208Y5245D01*
G01X34340Y5288D01*
G01X34427Y5288D01*
G01X34559Y5245D01*
G01X34648Y5156D01*
G01X34691Y5026D01*
G01X34691Y4894D01*
G01X34648Y4762D01*
G01X34602Y4719D01*
G01X34516Y4673D01*
G01X33990Y5623D02*
G01X33944Y5623D01*
G01X33858Y5666D01*
G01X33815Y5709D01*
G01X33769Y5798D01*
G01X33769Y5974D01*
G01X33815Y6060D01*
G01X33858Y6106D01*
G01X33944Y6149D01*
G01X34033Y6149D01*
G01X34119Y6106D01*
G01X34251Y6017D01*
G01X34691Y5577D01*
G01X34691Y6192D01*
G01X36309Y3393D02*
G01X37231Y3393D01*
G01X36309Y3947D02*
G01X36355Y3858D01*
G01X36441Y3771D01*
G01X36530Y3726D01*
G01X36659Y3683D01*
G01X36880Y3683D01*
G01X37012Y3726D01*
G01X37099Y3771D01*
G01X37188Y3858D01*
G01X37231Y3947D01*
G01X37231Y4122D01*
G01X37188Y4208D01*
G01X37099Y4297D01*
G01X37012Y4340D01*
G01X36880Y4384D01*
G01X36659Y4384D01*
G01X36530Y4340D01*
G01X36441Y4297D01*
G01X36355Y4208D01*
G01X36309Y4122D01*
G01X36309Y3947D01*
G01X36309Y4762D02*
G01X36309Y5245D01*
G01X36659Y4980D01*
G01X36659Y5113D01*
G01X36705Y5201D01*
G01X36748Y5245D01*
G01X36880Y5288D01*
G01X36967Y5288D01*
G01X37099Y5245D01*
G01X37188Y5156D01*
G01X37231Y5026D01*
G01X37231Y4894D01*
G01X37188Y4762D01*
G01X37142Y4719D01*
G01X37056Y4673D01*
G01X36309Y5666D02*
G01X36309Y6149D01*
G01X36659Y5885D01*
G01X36659Y6017D01*
G01X36705Y6106D01*
G01X36748Y6149D01*
G01X36880Y6192D01*
G01X36967Y6192D01*
G01X37099Y6149D01*
G01X37188Y6060D01*
G01X37231Y5928D01*
G01X37231Y5798D01*
G01X37188Y5666D01*
G01X37142Y5623D01*
G01X37056Y5577D01*
G01X38849Y3393D02*
G01X39771Y3393D01*
G01X38849Y3947D02*
G01X38895Y3858D01*
G01X38981Y3771D01*
G01X39070Y3726D01*
G01X39199Y3683D01*
G01X39420Y3683D01*
G01X39552Y3726D01*
G01X39639Y3771D01*
G01X39728Y3858D01*
G01X39771Y3947D01*
G01X39771Y4122D01*
G01X39728Y4208D01*
G01X39639Y4297D01*
G01X39552Y4340D01*
G01X39420Y4384D01*
G01X39199Y4384D01*
G01X39070Y4340D01*
G01X38981Y4297D01*
G01X38895Y4208D01*
G01X38849Y4122D01*
G01X38849Y3947D01*
G01X39070Y4719D02*
G01X39024Y4719D01*
G01X38938Y4762D01*
G01X38895Y4805D01*
G01X38849Y4894D01*
G01X38849Y5069D01*
G01X38895Y5156D01*
G01X38938Y5201D01*
G01X39024Y5245D01*
G01X39113Y5245D01*
G01X39199Y5201D01*
G01X39331Y5113D01*
G01X39771Y4673D01*
G01X39771Y5288D01*
G01X38849Y6106D02*
G01X38849Y5666D01*
G01X39245Y5623D01*
G01X39199Y5666D01*
G01X39156Y5798D01*
G01X39156Y5928D01*
G01X39199Y6060D01*
G01X39288Y6149D01*
G01X39420Y6192D01*
G01X39507Y6192D01*
G01X39639Y6149D01*
G01X39728Y6060D01*
G01X39771Y5928D01*
G01X39771Y5798D01*
G01X39728Y5666D01*
G01X39682Y5623D01*
G01X39596Y5577D01*
G01X41389Y3393D02*
G01X42311Y3393D01*
G01X41389Y3947D02*
G01X41435Y3858D01*
G01X41521Y3771D01*
G01X41610Y3726D01*
G01X41739Y3683D01*
G01X41960Y3683D01*
G01X42092Y3726D01*
G01X42179Y3771D01*
G01X42268Y3858D01*
G01X42311Y3947D01*
G01X42311Y4122D01*
G01X42268Y4208D01*
G01X42179Y4297D01*
G01X42092Y4340D01*
G01X41960Y4384D01*
G01X41739Y4384D01*
G01X41610Y4340D01*
G01X41521Y4297D01*
G01X41435Y4208D01*
G01X41389Y4122D01*
G01X41389Y3947D01*
G01X41610Y4719D02*
G01X41564Y4719D01*
G01X41478Y4762D01*
G01X41435Y4805D01*
G01X41389Y4894D01*
G01X41389Y5069D01*
G01X41435Y5156D01*
G01X41478Y5201D01*
G01X41564Y5245D01*
G01X41653Y5245D01*
G01X41739Y5201D01*
G01X41871Y5113D01*
G01X42311Y4673D01*
G01X42311Y5288D01*
G01X41521Y6106D02*
G01X41435Y6060D01*
G01X41389Y5928D01*
G01X41389Y5842D01*
G01X41435Y5709D01*
G01X41564Y5623D01*
G01X41785Y5577D01*
G01X42003Y5577D01*
G01X42179Y5623D01*
G01X42268Y5709D01*
G01X42311Y5842D01*
G01X42311Y5885D01*
G01X42268Y6017D01*
G01X42179Y6106D01*
G01X42047Y6149D01*
G01X42003Y6149D01*
G01X41871Y6106D01*
G01X41785Y6017D01*
G01X41739Y5885D01*
G01X41739Y5842D01*
G01X41785Y5709D01*
G01X41871Y5623D01*
G01X42003Y5577D01*
G01X43929Y3393D02*
G01X44851Y3393D01*
G01X43929Y3947D02*
G01X43975Y3858D01*
G01X44061Y3771D01*
G01X44150Y3726D01*
G01X44279Y3683D01*
G01X44500Y3683D01*
G01X44632Y3726D01*
G01X44719Y3771D01*
G01X44808Y3858D01*
G01X44851Y3947D01*
G01X44851Y4122D01*
G01X44808Y4208D01*
G01X44719Y4297D01*
G01X44632Y4340D01*
G01X44500Y4384D01*
G01X44279Y4384D01*
G01X44150Y4340D01*
G01X44061Y4297D01*
G01X43975Y4208D01*
G01X43929Y4122D01*
G01X43929Y3947D01*
G01X44150Y4719D02*
G01X44104Y4719D01*
G01X44018Y4762D01*
G01X43975Y4805D01*
G01X43929Y4894D01*
G01X43929Y5069D01*
G01X43975Y5156D01*
G01X44018Y5201D01*
G01X44104Y5245D01*
G01X44193Y5245D01*
G01X44279Y5201D01*
G01X44411Y5113D01*
G01X44851Y4673D01*
G01X44851Y5288D01*
G01X43929Y6192D02*
G01X44851Y5753D01*
G01X43929Y5577D02*
G01X43929Y6192D01*
G01X46469Y3393D02*
G01X47391Y3393D01*
G01X46469Y3947D02*
G01X46515Y3858D01*
G01X46601Y3771D01*
G01X46690Y3726D01*
G01X46819Y3683D01*
G01X47040Y3683D01*
G01X47172Y3726D01*
G01X47259Y3771D01*
G01X47348Y3858D01*
G01X47391Y3947D01*
G01X47391Y4122D01*
G01X47348Y4208D01*
G01X47259Y4297D01*
G01X47172Y4340D01*
G01X47040Y4384D01*
G01X46819Y4384D01*
G01X46690Y4340D01*
G01X46601Y4297D01*
G01X46515Y4208D01*
G01X46469Y4122D01*
G01X46469Y3947D01*
G01X46644Y4673D02*
G01X46601Y4762D01*
G01X46469Y4894D01*
G01X47391Y4894D01*
G01X46469Y5623D02*
G01X47083Y5184D01*
G01X47083Y5842D01*
G01X46469Y5623D02*
G01X47391Y5623D01*
G01X49009Y3393D02*
G01X49931Y3393D01*
G01X49009Y3947D02*
G01X49055Y3858D01*
G01X49141Y3771D01*
G01X49230Y3726D01*
G01X49359Y3683D01*
G01X49580Y3683D01*
G01X49712Y3726D01*
G01X49799Y3771D01*
G01X49888Y3858D01*
G01X49931Y3947D01*
G01X49931Y4122D01*
G01X49888Y4208D01*
G01X49799Y4297D01*
G01X49712Y4340D01*
G01X49580Y4384D01*
G01X49359Y4384D01*
G01X49230Y4340D01*
G01X49141Y4297D01*
G01X49055Y4208D01*
G01X49009Y4122D01*
G01X49009Y3947D01*
G01X49184Y4673D02*
G01X49141Y4762D01*
G01X49009Y4894D01*
G01X49931Y4894D01*
G01X49230Y5227D02*
G01X49184Y5227D01*
G01X49098Y5270D01*
G01X49055Y5316D01*
G01X49009Y5402D01*
G01X49009Y5577D01*
G01X49055Y5666D01*
G01X49098Y5709D01*
G01X49184Y5753D01*
G01X49273Y5753D01*
G01X49359Y5709D01*
G01X49491Y5623D01*
G01X49931Y5184D01*
G01X49931Y5798D01*
G01X51770Y4437D02*
G01X51681Y4394D01*
G01X51595Y4305D01*
G01X51549Y4218D01*
G01X51549Y4043D01*
G01X51595Y3954D01*
G01X51681Y3868D01*
G01X51770Y3822D01*
G01X51899Y3779D01*
G01X52120Y3779D01*
G01X52252Y3822D01*
G01X52339Y3868D01*
G01X52428Y3954D01*
G01X52471Y4043D01*
G01X52471Y4218D01*
G01X52428Y4305D01*
G01X52339Y4394D01*
G01X52252Y4437D01*
G01X52120Y4437D01*
G01X52120Y4218D02*
G01X52120Y4437D01*
G01X51549Y4726D02*
G01X52471Y4726D01*
G01X51549Y4726D02*
G01X52471Y5341D01*
G01X51549Y5341D02*
G01X52471Y5341D01*
G01X51549Y5631D02*
G01X52471Y5631D01*
G01X51549Y5631D02*
G01X51549Y5938D01*
G01X51595Y6070D01*
G01X51681Y6156D01*
G01X51770Y6202D01*
G01X51899Y6245D01*
G01X52120Y6245D01*
G01X52252Y6202D01*
G01X52339Y6156D01*
G01X52428Y6070D01*
G01X52471Y5938D01*
G01X52471Y5631D01*
G01X54089Y3393D02*
G01X55011Y3393D01*
G01X54089Y3947D02*
G01X54135Y3858D01*
G01X54221Y3771D01*
G01X54310Y3726D01*
G01X54439Y3683D01*
G01X54660Y3683D01*
G01X54792Y3726D01*
G01X54879Y3771D01*
G01X54968Y3858D01*
G01X55011Y3947D01*
G01X55011Y4122D01*
G01X54968Y4208D01*
G01X54879Y4297D01*
G01X54792Y4340D01*
G01X54660Y4384D01*
G01X54439Y4384D01*
G01X54310Y4340D01*
G01X54221Y4297D01*
G01X54135Y4208D01*
G01X54089Y4122D01*
G01X54089Y3947D01*
G01X54264Y4673D02*
G01X54221Y4762D01*
G01X54089Y4894D01*
G01X55011Y4894D01*
G01X54089Y5270D02*
G01X54089Y5753D01*
G01X54439Y5491D01*
G01X54439Y5623D01*
G01X54485Y5709D01*
G01X54528Y5753D01*
G01X54660Y5798D01*
G01X54747Y5798D01*
G01X54879Y5753D01*
G01X54968Y5666D01*
G01X55011Y5534D01*
G01X55011Y5402D01*
G01X54968Y5270D01*
G01X54922Y5227D01*
G01X54836Y5184D01*
G01X56761Y4394D02*
G01X56675Y4305D01*
G01X56629Y4175D01*
G01X56629Y3997D01*
G01X56675Y3868D01*
G01X56761Y3779D01*
G01X56850Y3779D01*
G01X56936Y3822D01*
G01X56979Y3868D01*
G01X57025Y3954D01*
G01X57111Y4218D01*
G01X57157Y4305D01*
G01X57200Y4351D01*
G01X57287Y4394D01*
G01X57419Y4394D01*
G01X57508Y4305D01*
G01X57551Y4175D01*
G01X57551Y3997D01*
G01X57508Y3868D01*
G01X57419Y3779D01*
G01X56629Y4683D02*
G01X57551Y4683D01*
G01X56629Y4683D02*
G01X56629Y4991D01*
G01X56675Y5123D01*
G01X56761Y5209D01*
G01X56850Y5252D01*
G01X56979Y5298D01*
G01X57200Y5298D01*
G01X57332Y5252D01*
G01X57419Y5209D01*
G01X57508Y5123D01*
G01X57551Y4991D01*
G01X57551Y4683D01*
G01X56850Y5631D02*
G01X56804Y5631D01*
G01X56718Y5674D01*
G01X56675Y5720D01*
G01X56629Y5806D01*
G01X56629Y5981D01*
G01X56675Y6070D01*
G01X56718Y6113D01*
G01X56804Y6156D01*
G01X56893Y6156D01*
G01X56979Y6113D01*
G01X57111Y6024D01*
G01X57551Y5588D01*
G01X57551Y6202D01*
G01X59301Y4394D02*
G01X59215Y4305D01*
G01X59169Y4175D01*
G01X59169Y3997D01*
G01X59215Y3868D01*
G01X59301Y3779D01*
G01X59390Y3779D01*
G01X59476Y3822D01*
G01X59519Y3868D01*
G01X59565Y3954D01*
G01X59651Y4218D01*
G01X59697Y4305D01*
G01X59740Y4351D01*
G01X59827Y4394D01*
G01X59959Y4394D01*
G01X60048Y4305D01*
G01X60091Y4175D01*
G01X60091Y3997D01*
G01X60048Y3868D01*
G01X59959Y3779D01*
G01X59169Y4683D02*
G01X60091Y4683D01*
G01X59169Y4683D02*
G01X59169Y4991D01*
G01X59215Y5123D01*
G01X59301Y5209D01*
G01X59390Y5252D01*
G01X59519Y5298D01*
G01X59740Y5298D01*
G01X59872Y5252D01*
G01X59959Y5209D01*
G01X60048Y5123D01*
G01X60091Y4991D01*
G01X60091Y4683D01*
G01X59169Y5674D02*
G01X59169Y6156D01*
G01X59519Y5895D01*
G01X59519Y6024D01*
G01X59565Y6113D01*
G01X59608Y6156D01*
G01X59740Y6202D01*
G01X59827Y6202D01*
G01X59959Y6156D01*
G01X60048Y6070D01*
G01X60091Y5938D01*
G01X60091Y5806D01*
G01X60048Y5674D01*
G01X60002Y5631D01*
G01X59916Y5588D01*
G01X61930Y4437D02*
G01X61841Y4394D01*
G01X61755Y4305D01*
G01X61709Y4218D01*
G01X61709Y4043D01*
G01X61755Y3954D01*
G01X61841Y3868D01*
G01X61930Y3822D01*
G01X62059Y3779D01*
G01X62280Y3779D01*
G01X62412Y3822D01*
G01X62499Y3868D01*
G01X62588Y3954D01*
G01X62631Y4043D01*
G01X62631Y4218D01*
G01X62588Y4305D01*
G01X62499Y4394D01*
G01X62412Y4437D01*
G01X61709Y4726D02*
G01X62631Y4726D01*
G01X61709Y4726D02*
G01X62631Y5077D01*
G01X61709Y5430D02*
G01X62631Y5077D01*
G01X61709Y5430D02*
G01X62631Y5430D01*
G01X61709Y5720D02*
G01X62631Y5720D01*
G01X61709Y5720D02*
G01X61709Y6024D01*
G01X61755Y6156D01*
G01X61841Y6245D01*
G01X61930Y6289D01*
G01X62059Y6332D01*
G01X62280Y6332D01*
G01X62412Y6289D01*
G01X62499Y6245D01*
G01X62588Y6156D01*
G01X62631Y6024D01*
G01X62631Y5720D01*
G01X64249Y4691D02*
G01X64249Y4254D01*
G01X64645Y4208D01*
G01X64599Y4254D01*
G01X64556Y4384D01*
G01X64556Y4516D01*
G01X64599Y4648D01*
G01X64688Y4737D01*
G01X64820Y4780D01*
G01X64907Y4780D01*
G01X65039Y4737D01*
G01X65128Y4648D01*
G01X65171Y4516D01*
G01X65171Y4384D01*
G01X65128Y4254D01*
G01X65082Y4208D01*
G01X64996Y4165D01*
G01X64249Y5069D02*
G01X65171Y5420D01*
G01X64249Y5770D02*
G01X65171Y5420D01*
G01X18770Y23251D02*
G01X18681Y23207D01*
G01X18592Y23119D01*
G01X18549Y23032D01*
G01X18549Y22857D01*
G01X18592Y22768D01*
G01X18681Y22682D01*
G01X18770Y22636D01*
G01X18900Y22593D01*
G01X19121Y22593D01*
G01X19253Y22636D01*
G01X19339Y22682D01*
G01X19428Y22768D01*
G01X19471Y22857D01*
G01X19471Y23032D01*
G01X19428Y23119D01*
G01X19339Y23207D01*
G01X19253Y23251D01*
G01X19121Y23251D01*
G01X19121Y23032D02*
G01X19121Y23251D01*
G01X18549Y23540D02*
G01X19471Y23540D01*
G01X18549Y23540D02*
G01X19471Y24155D01*
G01X18549Y24155D02*
G01X19471Y24155D01*
G01X18549Y24444D02*
G01X19471Y24444D01*
G01X18549Y24444D02*
G01X18549Y24752D01*
G01X18592Y24884D01*
G01X18681Y24970D01*
G01X18770Y25016D01*
G01X18900Y25059D01*
G01X19121Y25059D01*
G01X19253Y25016D01*
G01X19339Y24970D01*
G01X19428Y24884D01*
G01X19471Y24752D01*
G01X19471Y24444D01*
G01X21089Y22207D02*
G01X22011Y22207D01*
G01X21089Y22760D02*
G01X21132Y22672D01*
G01X21221Y22585D01*
G01X21310Y22539D01*
G01X21440Y22496D01*
G01X21661Y22496D01*
G01X21793Y22539D01*
G01X21879Y22585D01*
G01X21968Y22672D01*
G01X22011Y22760D01*
G01X22011Y22936D01*
G01X21968Y23022D01*
G01X21879Y23111D01*
G01X21793Y23154D01*
G01X21661Y23200D01*
G01X21440Y23200D01*
G01X21310Y23154D01*
G01X21221Y23111D01*
G01X21132Y23022D01*
G01X21089Y22936D01*
G01X21089Y22760D01*
G01X21310Y23533D02*
G01X21264Y23533D01*
G01X21178Y23576D01*
G01X21132Y23619D01*
G01X21089Y23708D01*
G01X21089Y23883D01*
G01X21132Y23972D01*
G01X21178Y24015D01*
G01X21264Y24058D01*
G01X21353Y24058D01*
G01X21440Y24015D01*
G01X21572Y23926D01*
G01X22011Y23489D01*
G01X22011Y24102D01*
G01X21089Y24480D02*
G01X21089Y24963D01*
G01X21440Y24698D01*
G01X21440Y24831D01*
G01X21485Y24919D01*
G01X21529Y24963D01*
G01X21661Y25006D01*
G01X21747Y25006D01*
G01X21879Y24963D01*
G01X21968Y24874D01*
G01X22011Y24744D01*
G01X22011Y24612D01*
G01X21968Y24480D01*
G01X21922Y24437D01*
G01X21836Y24391D01*
G01X23629Y22207D02*
G01X24551Y22207D01*
G01X23629Y22760D02*
G01X23672Y22672D01*
G01X23761Y22585D01*
G01X23850Y22539D01*
G01X23980Y22496D01*
G01X24201Y22496D01*
G01X24333Y22539D01*
G01X24419Y22585D01*
G01X24508Y22672D01*
G01X24551Y22760D01*
G01X24551Y22936D01*
G01X24508Y23022D01*
G01X24419Y23111D01*
G01X24333Y23154D01*
G01X24201Y23200D01*
G01X23980Y23200D01*
G01X23850Y23154D01*
G01X23761Y23111D01*
G01X23672Y23022D01*
G01X23629Y22936D01*
G01X23629Y22760D01*
G01X23850Y23533D02*
G01X23804Y23533D01*
G01X23718Y23576D01*
G01X23672Y23619D01*
G01X23629Y23708D01*
G01X23629Y23883D01*
G01X23672Y23972D01*
G01X23718Y24015D01*
G01X23804Y24058D01*
G01X23893Y24058D01*
G01X23980Y24015D01*
G01X24112Y23926D01*
G01X24551Y23489D01*
G01X24551Y24102D01*
G01X23850Y24437D02*
G01X23804Y24437D01*
G01X23718Y24480D01*
G01X23672Y24523D01*
G01X23629Y24612D01*
G01X23629Y24787D01*
G01X23672Y24874D01*
G01X23718Y24919D01*
G01X23804Y24963D01*
G01X23893Y24963D01*
G01X23980Y24919D01*
G01X24112Y24831D01*
G01X24551Y24391D01*
G01X24551Y25006D01*
G01X26169Y22514D02*
G01X27091Y22514D01*
G01X26169Y22207D02*
G01X26169Y22821D01*
G01X26169Y23111D02*
G01X27091Y23726D01*
G01X26169Y23726D02*
G01X27091Y23111D01*
G01X26169Y24015D02*
G01X27091Y24015D01*
G01X26169Y24015D02*
G01X26169Y24323D01*
G01X26212Y24455D01*
G01X26301Y24541D01*
G01X26390Y24584D01*
G01X26520Y24630D01*
G01X26741Y24630D01*
G01X26873Y24584D01*
G01X26959Y24541D01*
G01X27048Y24455D01*
G01X27091Y24323D01*
G01X27091Y24015D01*
G01X26169Y25181D02*
G01X26212Y25049D01*
G01X26344Y24963D01*
G01X26565Y24919D01*
G01X26695Y24919D01*
G01X26916Y24963D01*
G01X27048Y25049D01*
G01X27091Y25181D01*
G01X27091Y25270D01*
G01X27048Y25402D01*
G01X26916Y25488D01*
G01X26695Y25532D01*
G01X26565Y25532D01*
G01X26344Y25488D01*
G01X26212Y25402D01*
G01X26169Y25270D01*
G01X26169Y25181D01*
G01X28709Y22207D02*
G01X29631Y22207D01*
G01X28709Y22207D02*
G01X28709Y22603D01*
G01X28752Y22733D01*
G01X28798Y22778D01*
G01X28884Y22821D01*
G01X28973Y22821D01*
G01X29060Y22778D01*
G01X29105Y22733D01*
G01X29149Y22603D01*
G01X29149Y22207D01*
G01X29149Y22514D02*
G01X29631Y22821D01*
G01X28709Y23111D02*
G01X29631Y23726D01*
G01X28709Y23726D02*
G01X29631Y23111D01*
G01X28709Y24015D02*
G01X29631Y24015D01*
G01X28709Y24015D02*
G01X28709Y24323D01*
G01X28752Y24455D01*
G01X28841Y24541D01*
G01X28930Y24584D01*
G01X29060Y24630D01*
G01X29281Y24630D01*
G01X29413Y24584D01*
G01X29499Y24541D01*
G01X29588Y24455D01*
G01X29631Y24323D01*
G01X29631Y24015D01*
G01X28709Y25181D02*
G01X28752Y25049D01*
G01X28884Y24963D01*
G01X29105Y24919D01*
G01X29235Y24919D01*
G01X29456Y24963D01*
G01X29588Y25049D01*
G01X29631Y25181D01*
G01X29631Y25270D01*
G01X29588Y25402D01*
G01X29456Y25488D01*
G01X29235Y25532D01*
G01X29105Y25532D01*
G01X28884Y25488D01*
G01X28752Y25402D01*
G01X28709Y25270D01*
G01X28709Y25181D01*
G01X31249Y22207D02*
G01X32171Y22207D01*
G01X31249Y22760D02*
G01X31292Y22672D01*
G01X31381Y22585D01*
G01X31470Y22539D01*
G01X31600Y22496D01*
G01X31821Y22496D01*
G01X31953Y22539D01*
G01X32039Y22585D01*
G01X32128Y22672D01*
G01X32171Y22760D01*
G01X32171Y22936D01*
G01X32128Y23022D01*
G01X32039Y23111D01*
G01X31953Y23154D01*
G01X31821Y23200D01*
G01X31600Y23200D01*
G01X31470Y23154D01*
G01X31381Y23111D01*
G01X31292Y23022D01*
G01X31249Y22936D01*
G01X31249Y22760D01*
G01X31470Y23533D02*
G01X31424Y23533D01*
G01X31338Y23576D01*
G01X31292Y23619D01*
G01X31249Y23708D01*
G01X31249Y23883D01*
G01X31292Y23972D01*
G01X31338Y24015D01*
G01X31424Y24058D01*
G01X31513Y24058D01*
G01X31600Y24015D01*
G01X31732Y23926D01*
G01X32171Y23489D01*
G01X32171Y24102D01*
G01X31424Y24391D02*
G01X31381Y24480D01*
G01X31249Y24612D01*
G01X32171Y24612D01*
G01X34010Y23251D02*
G01X33921Y23207D01*
G01X33832Y23119D01*
G01X33789Y23032D01*
G01X33789Y22857D01*
G01X33832Y22768D01*
G01X33921Y22682D01*
G01X34010Y22636D01*
G01X34140Y22593D01*
G01X34361Y22593D01*
G01X34493Y22636D01*
G01X34579Y22682D01*
G01X34668Y22768D01*
G01X34711Y22857D01*
G01X34711Y23032D01*
G01X34668Y23119D01*
G01X34579Y23207D01*
G01X34493Y23251D01*
G01X34361Y23251D01*
G01X34361Y23032D02*
G01X34361Y23251D01*
G01X33789Y23540D02*
G01X34711Y23540D01*
G01X33789Y23540D02*
G01X34711Y24155D01*
G01X33789Y24155D02*
G01X34711Y24155D01*
G01X33789Y24444D02*
G01X34711Y24444D01*
G01X33789Y24444D02*
G01X33789Y24752D01*
G01X33832Y24884D01*
G01X33921Y24970D01*
G01X34010Y25016D01*
G01X34140Y25059D01*
G01X34361Y25059D01*
G01X34493Y25016D01*
G01X34579Y24970D01*
G01X34668Y24884D01*
G01X34711Y24752D01*
G01X34711Y24444D01*
G01X36329Y22207D02*
G01X37251Y22207D01*
G01X36329Y22760D02*
G01X36372Y22672D01*
G01X36461Y22585D01*
G01X36550Y22539D01*
G01X36680Y22496D01*
G01X36901Y22496D01*
G01X37033Y22539D01*
G01X37119Y22585D01*
G01X37208Y22672D01*
G01X37251Y22760D01*
G01X37251Y22936D01*
G01X37208Y23022D01*
G01X37119Y23111D01*
G01X37033Y23154D01*
G01X36901Y23200D01*
G01X36680Y23200D01*
G01X36550Y23154D01*
G01X36461Y23111D01*
G01X36372Y23022D01*
G01X36329Y22936D01*
G01X36329Y22760D01*
G01X36504Y23489D02*
G01X36461Y23576D01*
G01X36329Y23708D01*
G01X37251Y23708D01*
G01X36636Y24566D02*
G01X36769Y24523D01*
G01X36855Y24437D01*
G01X36901Y24305D01*
G01X36901Y24262D01*
G01X36855Y24130D01*
G01X36769Y24041D01*
G01X36636Y23997D01*
G01X36593Y23997D01*
G01X36461Y24041D01*
G01X36372Y24130D01*
G01X36329Y24262D01*
G01X36329Y24305D01*
G01X36372Y24437D01*
G01X36461Y24523D01*
G01X36636Y24566D01*
G01X36855Y24566D01*
G01X37076Y24523D01*
G01X37208Y24437D01*
G01X37251Y24305D01*
G01X37251Y24216D01*
G01X37208Y24084D01*
G01X37119Y24041D01*
G01X38869Y22207D02*
G01X39791Y22207D01*
G01X38869Y22760D02*
G01X38912Y22672D01*
G01X39001Y22585D01*
G01X39090Y22539D01*
G01X39220Y22496D01*
G01X39441Y22496D01*
G01X39573Y22539D01*
G01X39659Y22585D01*
G01X39748Y22672D01*
G01X39791Y22760D01*
G01X39791Y22936D01*
G01X39748Y23022D01*
G01X39659Y23111D01*
G01X39573Y23154D01*
G01X39441Y23200D01*
G01X39220Y23200D01*
G01X39090Y23154D01*
G01X39001Y23111D01*
G01X38912Y23022D01*
G01X38869Y22936D01*
G01X38869Y22760D01*
G01X39044Y23489D02*
G01X39001Y23576D01*
G01X38869Y23708D01*
G01X39791Y23708D01*
G01X38869Y24216D02*
G01X38912Y24084D01*
G01X39001Y24041D01*
G01X39090Y24041D01*
G01X39176Y24084D01*
G01X39220Y24173D01*
G01X39265Y24348D01*
G01X39309Y24480D01*
G01X39395Y24566D01*
G01X39484Y24612D01*
G01X39616Y24612D01*
G01X39702Y24566D01*
G01X39748Y24523D01*
G01X39791Y24391D01*
G01X39791Y24216D01*
G01X39748Y24084D01*
G01X39702Y24041D01*
G01X39616Y23997D01*
G01X39484Y23997D01*
G01X39395Y24041D01*
G01X39309Y24130D01*
G01X39265Y24262D01*
G01X39220Y24437D01*
G01X39176Y24523D01*
G01X39090Y24566D01*
G01X39001Y24566D01*
G01X38912Y24523D01*
G01X38869Y24391D01*
G01X38869Y24216D01*
G01X41409Y22593D02*
G01X42331Y22593D01*
G01X41409Y23147D02*
G01X41452Y23058D01*
G01X41541Y22971D01*
G01X41630Y22926D01*
G01X41760Y22882D01*
G01X41981Y22882D01*
G01X42113Y22926D01*
G01X42199Y22971D01*
G01X42288Y23058D01*
G01X42331Y23147D01*
G01X42331Y23322D01*
G01X42288Y23408D01*
G01X42199Y23497D01*
G01X42113Y23540D01*
G01X41981Y23586D01*
G01X41760Y23586D01*
G01X41630Y23540D01*
G01X41541Y23497D01*
G01X41452Y23408D01*
G01X41409Y23322D01*
G01X41409Y23147D01*
G01X41409Y24401D02*
G01X41409Y23962D01*
G01X41805Y23919D01*
G01X41760Y23962D01*
G01X41716Y24094D01*
G01X41716Y24226D01*
G01X41760Y24358D01*
G01X41849Y24444D01*
G01X41981Y24488D01*
G01X42067Y24488D01*
G01X42199Y24444D01*
G01X42288Y24358D01*
G01X42331Y24226D01*
G01X42331Y24094D01*
G01X42288Y23962D01*
G01X42242Y23919D01*
G01X42156Y23876D01*
G01X43949Y22207D02*
G01X44871Y22207D01*
G01X43949Y22760D02*
G01X43992Y22672D01*
G01X44081Y22585D01*
G01X44170Y22539D01*
G01X44300Y22496D01*
G01X44521Y22496D01*
G01X44653Y22539D01*
G01X44739Y22585D01*
G01X44828Y22672D01*
G01X44871Y22760D01*
G01X44871Y22936D01*
G01X44828Y23022D01*
G01X44739Y23111D01*
G01X44653Y23154D01*
G01X44521Y23200D01*
G01X44300Y23200D01*
G01X44170Y23154D01*
G01X44081Y23111D01*
G01X43992Y23022D01*
G01X43949Y22936D01*
G01X43949Y22760D01*
G01X44124Y23489D02*
G01X44081Y23576D01*
G01X43949Y23708D01*
G01X44871Y23708D01*
G01X43949Y24612D02*
G01X44871Y24173D01*
G01X43949Y23997D02*
G01X43949Y24612D01*
G01X46489Y22207D02*
G01X47411Y22207D01*
G01X46489Y22760D02*
G01X46532Y22672D01*
G01X46621Y22585D01*
G01X46710Y22539D01*
G01X46840Y22496D01*
G01X47061Y22496D01*
G01X47193Y22539D01*
G01X47279Y22585D01*
G01X47368Y22672D01*
G01X47411Y22760D01*
G01X47411Y22936D01*
G01X47368Y23022D01*
G01X47279Y23111D01*
G01X47193Y23154D01*
G01X47061Y23200D01*
G01X46840Y23200D01*
G01X46710Y23154D01*
G01X46621Y23111D01*
G01X46532Y23022D01*
G01X46489Y22936D01*
G01X46489Y22760D01*
G01X46664Y23489D02*
G01X46621Y23576D01*
G01X46489Y23708D01*
G01X47411Y23708D01*
G01X46621Y24523D02*
G01X46532Y24480D01*
G01X46489Y24348D01*
G01X46489Y24262D01*
G01X46532Y24130D01*
G01X46664Y24041D01*
G01X46885Y23997D01*
G01X47104Y23997D01*
G01X47279Y24041D01*
G01X47368Y24130D01*
G01X47411Y24262D01*
G01X47411Y24305D01*
G01X47368Y24437D01*
G01X47279Y24523D01*
G01X47147Y24566D01*
G01X47104Y24566D01*
G01X46972Y24523D01*
G01X46885Y24437D01*
G01X46840Y24305D01*
G01X46840Y24262D01*
G01X46885Y24130D01*
G01X46972Y24041D01*
G01X47104Y23997D01*
G01X49029Y22593D02*
G01X49951Y22593D01*
G01X49029Y23147D02*
G01X49072Y23058D01*
G01X49161Y22971D01*
G01X49250Y22926D01*
G01X49380Y22882D01*
G01X49601Y22882D01*
G01X49733Y22926D01*
G01X49819Y22971D01*
G01X49908Y23058D01*
G01X49951Y23147D01*
G01X49951Y23322D01*
G01X49908Y23408D01*
G01X49819Y23497D01*
G01X49733Y23540D01*
G01X49601Y23586D01*
G01X49380Y23586D01*
G01X49250Y23540D01*
G01X49161Y23497D01*
G01X49072Y23408D01*
G01X49029Y23322D01*
G01X49029Y23147D01*
G01X49029Y24312D02*
G01X49644Y23876D01*
G01X49644Y24533D01*
G01X49029Y24312D02*
G01X49951Y24312D01*
G01X51569Y22593D02*
G01X52491Y22593D01*
G01X51569Y23147D02*
G01X51612Y23058D01*
G01X51701Y22971D01*
G01X51790Y22926D01*
G01X51920Y22882D01*
G01X52141Y22882D01*
G01X52273Y22926D01*
G01X52359Y22971D01*
G01X52448Y23058D01*
G01X52491Y23147D01*
G01X52491Y23322D01*
G01X52448Y23408D01*
G01X52359Y23497D01*
G01X52273Y23540D01*
G01X52141Y23586D01*
G01X51920Y23586D01*
G01X51790Y23540D01*
G01X51701Y23497D01*
G01X51612Y23408D01*
G01X51569Y23322D01*
G01X51569Y23147D01*
G01X51569Y24137D02*
G01X51612Y24005D01*
G01X51744Y23919D01*
G01X51965Y23876D01*
G01X52095Y23876D01*
G01X52316Y23919D01*
G01X52448Y24005D01*
G01X52491Y24137D01*
G01X52491Y24226D01*
G01X52448Y24358D01*
G01X52316Y24444D01*
G01X52095Y24488D01*
G01X51965Y24488D01*
G01X51744Y24444D01*
G01X51612Y24358D01*
G01X51569Y24226D01*
G01X51569Y24137D01*
G01X54109Y22593D02*
G01X55031Y22593D01*
G01X54109Y23147D02*
G01X54152Y23058D01*
G01X54241Y22971D01*
G01X54330Y22926D01*
G01X54460Y22882D01*
G01X54681Y22882D01*
G01X54813Y22926D01*
G01X54899Y22971D01*
G01X54988Y23058D01*
G01X55031Y23147D01*
G01X55031Y23322D01*
G01X54988Y23408D01*
G01X54899Y23497D01*
G01X54813Y23540D01*
G01X54681Y23586D01*
G01X54460Y23586D01*
G01X54330Y23540D01*
G01X54241Y23497D01*
G01X54152Y23408D01*
G01X54109Y23322D01*
G01X54109Y23147D01*
G01X54330Y23919D02*
G01X54284Y23919D01*
G01X54198Y23962D01*
G01X54152Y24005D01*
G01X54109Y24094D01*
G01X54109Y24269D01*
G01X54152Y24358D01*
G01X54198Y24401D01*
G01X54284Y24444D01*
G01X54373Y24444D01*
G01X54460Y24401D01*
G01X54592Y24312D01*
G01X55031Y23876D01*
G01X55031Y24488D01*
G01X56649Y22207D02*
G01X57571Y22207D01*
G01X56649Y22760D02*
G01X56692Y22672D01*
G01X56781Y22585D01*
G01X56870Y22539D01*
G01X57000Y22496D01*
G01X57221Y22496D01*
G01X57353Y22539D01*
G01X57439Y22585D01*
G01X57528Y22672D01*
G01X57571Y22760D01*
G01X57571Y22936D01*
G01X57528Y23022D01*
G01X57439Y23111D01*
G01X57353Y23154D01*
G01X57221Y23200D01*
G01X57000Y23200D01*
G01X56870Y23154D01*
G01X56781Y23111D01*
G01X56692Y23022D01*
G01X56649Y22936D01*
G01X56649Y22760D01*
G01X56824Y23489D02*
G01X56781Y23576D01*
G01X56649Y23708D01*
G01X57571Y23708D01*
G01X56649Y24523D02*
G01X56649Y24084D01*
G01X57045Y24041D01*
G01X57000Y24084D01*
G01X56956Y24216D01*
G01X56956Y24348D01*
G01X57000Y24480D01*
G01X57089Y24566D01*
G01X57221Y24612D01*
G01X57307Y24612D01*
G01X57439Y24566D01*
G01X57528Y24480D01*
G01X57571Y24348D01*
G01X57571Y24216D01*
G01X57528Y24084D01*
G01X57482Y24041D01*
G01X57396Y23997D01*
G01X59321Y23207D02*
G01X59232Y23119D01*
G01X59189Y22989D01*
G01X59189Y22814D01*
G01X59232Y22682D01*
G01X59321Y22593D01*
G01X59410Y22593D01*
G01X59496Y22636D01*
G01X59540Y22682D01*
G01X59585Y22768D01*
G01X59672Y23032D01*
G01X59715Y23119D01*
G01X59761Y23164D01*
G01X59847Y23207D01*
G01X59979Y23207D01*
G01X60068Y23119D01*
G01X60111Y22989D01*
G01X60111Y22814D01*
G01X60068Y22682D01*
G01X59979Y22593D01*
G01X59189Y23497D02*
G01X60111Y23497D01*
G01X59189Y23497D02*
G01X59189Y23804D01*
G01X59232Y23936D01*
G01X59321Y24023D01*
G01X59410Y24069D01*
G01X59540Y24112D01*
G01X59761Y24112D01*
G01X59893Y24069D01*
G01X59979Y24023D01*
G01X60068Y23936D01*
G01X60111Y23804D01*
G01X60111Y23497D01*
G01X59364Y24401D02*
G01X59321Y24488D01*
G01X59189Y24620D01*
G01X60111Y24620D01*
G01X61861Y23207D02*
G01X61772Y23119D01*
G01X61729Y22989D01*
G01X61729Y22814D01*
G01X61772Y22682D01*
G01X61861Y22593D01*
G01X61950Y22593D01*
G01X62036Y22636D01*
G01X62080Y22682D01*
G01X62125Y22768D01*
G01X62212Y23032D01*
G01X62255Y23119D01*
G01X62301Y23164D01*
G01X62387Y23207D01*
G01X62519Y23207D01*
G01X62608Y23119D01*
G01X62651Y22989D01*
G01X62651Y22814D01*
G01X62608Y22682D01*
G01X62519Y22593D01*
G01X61729Y23497D02*
G01X62651Y23497D01*
G01X61729Y23497D02*
G01X61729Y23804D01*
G01X61772Y23936D01*
G01X61861Y24023D01*
G01X61950Y24069D01*
G01X62080Y24112D01*
G01X62301Y24112D01*
G01X62433Y24069D01*
G01X62519Y24023D01*
G01X62608Y23936D01*
G01X62651Y23804D01*
G01X62651Y23497D01*
G01X61729Y24663D02*
G01X61772Y24533D01*
G01X61904Y24444D01*
G01X62125Y24401D01*
G01X62255Y24401D01*
G01X62476Y24444D01*
G01X62608Y24533D01*
G01X62651Y24663D01*
G01X62651Y24752D01*
G01X62608Y24884D01*
G01X62476Y24970D01*
G01X62255Y25016D01*
G01X62125Y25016D01*
G01X61904Y24970D01*
G01X61772Y24884D01*
G01X61729Y24752D01*
G01X61729Y24663D01*
G01X64490Y23251D02*
G01X64401Y23207D01*
G01X64312Y23119D01*
G01X64269Y23032D01*
G01X64269Y22857D01*
G01X64312Y22768D01*
G01X64401Y22682D01*
G01X64490Y22636D01*
G01X64620Y22593D01*
G01X64841Y22593D01*
G01X64973Y22636D01*
G01X65059Y22682D01*
G01X65148Y22768D01*
G01X65191Y22857D01*
G01X65191Y23032D01*
G01X65148Y23119D01*
G01X65059Y23207D01*
G01X64973Y23251D01*
G01X64269Y23540D02*
G01X65191Y23540D01*
G01X65191Y23540D02*
G01X65191Y24069D01*
G01X64269Y24358D02*
G01X65191Y24358D01*
G01X64269Y24970D02*
G01X64884Y24358D01*
G01X64665Y24577D02*
G01X65191Y24970D01*
G54D22*
G01X46319Y14202D02*
G01X46319Y15952D01*
G01X46319Y14202D02*
G01X45237Y14202D01*
G01X46319Y15035D02*
G01X45653Y15035D01*
G01X46319Y15952D02*
G01X45237Y15952D01*
G01X43520Y14451D02*
G01X43685Y14285D01*
G01X43936Y14202D01*
G01X44269Y14202D01*
G01X44518Y14285D01*
G01X44686Y14451D01*
G01X44686Y14618D01*
G01X44602Y14783D01*
G01X44518Y14867D01*
G01X44353Y14951D01*
G01X43853Y15119D01*
G01X43685Y15202D01*
G01X43601Y15284D01*
G01X43520Y15451D01*
G01X43520Y15700D01*
G01X43685Y15868D01*
G01X43936Y15952D01*
G01X44269Y15952D01*
G01X44518Y15868D01*
G01X44686Y15700D01*
G01X42969Y14202D02*
G01X42969Y15952D01*
G01X42969Y14202D02*
G01X42219Y14202D01*
G01X41968Y14285D01*
G01X41884Y14367D01*
G01X41803Y14534D01*
G01X41803Y14783D01*
G01X41884Y14951D01*
G01X41968Y15035D01*
G01X42219Y15119D01*
G01X42969Y15119D01*
G01X41084Y14202D02*
G01X40167Y14202D01*
G01X40667Y14867D01*
G01X40419Y14867D01*
G01X40251Y14951D01*
G01X40167Y15035D01*
G01X40083Y15284D01*
G01X40083Y15451D01*
G01X40167Y15700D01*
G01X40335Y15868D01*
G01X40584Y15952D01*
G01X40835Y15952D01*
G01X41084Y15868D01*
G01X41168Y15784D01*
G01X41252Y15619D01*
G01X39451Y14618D02*
G01X39451Y14534D01*
G01X39367Y14367D01*
G01X39283Y14285D01*
G01X39118Y14202D01*
G01X38785Y14202D01*
G01X38618Y14285D01*
G01X38534Y14367D01*
G01X38450Y14534D01*
G01X38450Y14702D01*
G01X38534Y14867D01*
G01X38701Y15119D01*
G01X39535Y15952D01*
G01X38366Y15952D01*
G01X37818Y15202D02*
G01X36316Y15202D01*
G01X35768Y14202D02*
G01X35768Y15952D01*
G01X35768Y14202D02*
G01X35184Y14202D01*
G01X34932Y14285D01*
G01X34767Y14451D01*
G01X34683Y14618D01*
G01X34599Y14867D01*
G01X34599Y15284D01*
G01X34683Y15535D01*
G01X34767Y15700D01*
G01X34932Y15868D01*
G01X35184Y15952D01*
G01X35768Y15952D01*
G01X34048Y15284D02*
G01X33050Y15284D01*
G01X33050Y15119D01*
G01X33131Y14951D01*
G01X33215Y14867D01*
G01X33383Y14783D01*
G01X33632Y14783D01*
G01X33799Y14867D01*
G01X33967Y15035D01*
G01X34048Y15284D01*
G01X34048Y15451D01*
G01X33967Y15700D01*
G01X33799Y15868D01*
G01X33632Y15952D01*
G01X33383Y15952D01*
G01X33215Y15868D01*
G01X33050Y15700D01*
G01X32499Y14783D02*
G01X31998Y15952D01*
G01X31498Y14783D02*
G01X31998Y15952D01*
G01X30949Y14202D02*
G01X30949Y15952D01*
G01X30114Y14783D02*
G01X30949Y15619D01*
G01X30614Y15284D02*
G01X30032Y15952D01*
G01X29481Y14202D02*
G01X29397Y14285D01*
G01X29314Y14202D01*
G01X29397Y14118D01*
G01X29481Y14202D01*
G01X29397Y14783D02*
G01X29397Y15952D01*
G01X28514Y14202D02*
G01X28514Y15619D01*
G01X28432Y15868D01*
G01X28265Y15952D01*
G01X28097Y15952D01*
G01X28765Y14783D02*
G01X28181Y14783D01*
G01X26296Y14618D02*
G01X26380Y14451D01*
G01X26548Y14285D01*
G01X26713Y14202D01*
G01X27048Y14202D01*
G01X27213Y14285D01*
G01X27381Y14451D01*
G01X27465Y14618D01*
G01X27548Y14867D01*
G01X27548Y15284D01*
G01X27465Y15535D01*
G01X27381Y15700D01*
G01X27213Y15868D01*
G01X27048Y15952D01*
G01X26713Y15952D01*
G01X26548Y15868D01*
G01X26380Y15700D01*
G01X26296Y15535D01*
G54D20*
G01X45730Y36289D02*
G01X44640Y36289D01*
G01X45730Y36289D02*
G01X45730Y35821D01*
G01X45679Y35666D01*
G01X45626Y35613D01*
G01X45521Y35562D01*
G01X45417Y35562D01*
G01X45313Y35613D01*
G01X45262Y35666D01*
G01X45212Y35821D01*
G01X45212Y36289D01*
G01X45212Y35925D02*
G01X44640Y35562D01*
G01X45471Y35166D02*
G01X45521Y35166D01*
G01X45626Y35115D01*
G01X45679Y35062D01*
G01X45730Y34958D01*
G01X45730Y34752D01*
G01X45679Y34648D01*
G01X45626Y34594D01*
G01X45521Y34544D01*
G01X45417Y34544D01*
G01X45313Y34594D01*
G01X45158Y34699D01*
G01X44640Y35219D01*
G01X44640Y34490D01*
G01X37073Y35846D02*
G01X38163Y35846D01*
G01X37073Y35846D02*
G01X37073Y36314D01*
G01X37124Y36469D01*
G01X37177Y36522D01*
G01X37282Y36573D01*
G01X37386Y36573D01*
G01X37490Y36522D01*
G01X37541Y36469D01*
G01X37592Y36314D01*
G01X37592Y35846D01*
G01X37592Y36210D02*
G01X38163Y36573D01*
G01X37073Y37020D02*
G01X37073Y37591D01*
G01X37490Y37281D01*
G01X37490Y37436D01*
G01X37541Y37541D01*
G01X37592Y37591D01*
G01X37749Y37645D01*
G01X37853Y37645D01*
G01X38008Y37591D01*
G01X38112Y37487D01*
G01X38163Y37332D01*
G01X38163Y37177D01*
G01X38112Y37020D01*
G01X38061Y36969D01*
G01X37957Y36916D01*
G01X30469Y35846D02*
G01X31559Y35846D01*
G01X30469Y35846D02*
G01X30469Y36314D01*
G01X30520Y36469D01*
G01X30573Y36522D01*
G01X30678Y36573D01*
G01X30782Y36573D01*
G01X30886Y36522D01*
G01X30937Y36469D01*
G01X30988Y36314D01*
G01X30988Y35846D01*
G01X30988Y36210D02*
G01X31559Y36573D01*
G01X30469Y37436D02*
G01X31196Y36916D01*
G01X31196Y37696D01*
G01X30469Y37436D02*
G01X31559Y37436D01*
G01X27167Y35846D02*
G01X28257Y35846D01*
G01X27167Y35846D02*
G01X27167Y36314D01*
G01X27218Y36469D01*
G01X27271Y36522D01*
G01X27376Y36573D01*
G01X27480Y36573D01*
G01X27584Y36522D01*
G01X27635Y36469D01*
G01X27686Y36314D01*
G01X27686Y35846D01*
G01X27686Y36210D02*
G01X28257Y36573D01*
G01X27167Y37541D02*
G01X27167Y37020D01*
G01X27635Y36969D01*
G01X27584Y37020D01*
G01X27531Y37177D01*
G01X27531Y37332D01*
G01X27584Y37487D01*
G01X27686Y37591D01*
G01X27843Y37645D01*
G01X27947Y37645D01*
G01X28102Y37591D01*
G01X28206Y37487D01*
G01X28257Y37332D01*
G01X28257Y37177D01*
G01X28206Y37020D01*
G01X28155Y36969D01*
G01X28051Y36916D01*
G01X20563Y35846D02*
G01X21653Y35846D01*
G01X20563Y35846D02*
G01X20563Y36314D01*
G01X20614Y36469D01*
G01X20667Y36522D01*
G01X20772Y36573D01*
G01X20876Y36573D01*
G01X20980Y36522D01*
G01X21031Y36469D01*
G01X21082Y36314D01*
G01X21082Y35846D01*
G01X21082Y36210D02*
G01X21653Y36573D01*
G01X20718Y37541D02*
G01X20614Y37487D01*
G01X20563Y37332D01*
G01X20563Y37228D01*
G01X20614Y37073D01*
G01X20772Y36969D01*
G01X21031Y36916D01*
G01X21290Y36916D01*
G01X21498Y36969D01*
G01X21602Y37073D01*
G01X21653Y37228D01*
G01X21653Y37281D01*
G01X21602Y37436D01*
G01X21498Y37541D01*
G01X21343Y37591D01*
G01X21290Y37591D01*
G01X21135Y37541D01*
G01X21031Y37436D01*
G01X20980Y37281D01*
G01X20980Y37228D01*
G01X21031Y37073D01*
G01X21135Y36969D01*
G01X21290Y36916D01*
G01X17261Y35846D02*
G01X18351Y35846D01*
G01X17261Y35846D02*
G01X17261Y36314D01*
G01X17312Y36469D01*
G01X17365Y36522D01*
G01X17470Y36573D01*
G01X17574Y36573D01*
G01X17678Y36522D01*
G01X17729Y36469D01*
G01X17780Y36314D01*
G01X17780Y35846D01*
G01X17780Y36210D02*
G01X18351Y36573D01*
G01X17261Y37645D02*
G01X18351Y37124D01*
G01X17261Y36916D02*
G01X17261Y37645D01*
G01X33771Y35846D02*
G01X34861Y35846D01*
G01X33771Y35846D02*
G01X33771Y36314D01*
G01X33822Y36469D01*
G01X33875Y36522D01*
G01X33980Y36573D01*
G01X34084Y36573D01*
G01X34188Y36522D01*
G01X34239Y36469D01*
G01X34290Y36314D01*
G01X34290Y35846D01*
G01X34290Y36210D02*
G01X34861Y36573D01*
G01X33771Y37177D02*
G01X33822Y37020D01*
G01X33926Y36969D01*
G01X34030Y36969D01*
G01X34135Y37020D01*
G01X34188Y37124D01*
G01X34239Y37332D01*
G01X34290Y37487D01*
G01X34394Y37591D01*
G01X34498Y37645D01*
G01X34655Y37645D01*
G01X34759Y37591D01*
G01X34810Y37541D01*
G01X34861Y37383D01*
G01X34861Y37177D01*
G01X34810Y37020D01*
G01X34759Y36969D01*
G01X34655Y36916D01*
G01X34498Y36916D01*
G01X34394Y36969D01*
G01X34290Y37073D01*
G01X34239Y37228D01*
G01X34188Y37436D01*
G01X34135Y37541D01*
G01X34030Y37591D01*
G01X33926Y37591D01*
G01X33822Y37541D01*
G01X33771Y37383D01*
G01X33771Y37177D01*
G01X23865Y35846D02*
G01X24955Y35846D01*
G01X23865Y35846D02*
G01X23865Y36314D01*
G01X23916Y36469D01*
G01X23969Y36522D01*
G01X24074Y36573D01*
G01X24178Y36573D01*
G01X24282Y36522D01*
G01X24333Y36469D01*
G01X24384Y36314D01*
G01X24384Y35846D01*
G01X24384Y36210D02*
G01X24955Y36573D01*
G01X24229Y37591D02*
G01X24384Y37541D01*
G01X24488Y37436D01*
G01X24541Y37281D01*
G01X24541Y37228D01*
G01X24488Y37073D01*
G01X24384Y36969D01*
G01X24229Y36916D01*
G01X24178Y36916D01*
G01X24020Y36969D01*
G01X23916Y37073D01*
G01X23865Y37228D01*
G01X23865Y37281D01*
G01X23916Y37436D01*
G01X24020Y37541D01*
G01X24229Y37591D01*
G01X24488Y37591D01*
G01X24749Y37541D01*
G01X24904Y37436D01*
G01X24955Y37281D01*
G01X24955Y37177D01*
G01X24904Y37020D01*
G01X24800Y36969D01*
G01X13959Y35846D02*
G01X15049Y35846D01*
G01X13959Y35846D02*
G01X13959Y36314D01*
G01X14010Y36469D01*
G01X14063Y36522D01*
G01X14168Y36573D01*
G01X14272Y36573D01*
G01X14376Y36522D01*
G01X14427Y36469D01*
G01X14478Y36314D01*
G01X14478Y35846D01*
G01X14478Y36210D02*
G01X15049Y36573D01*
G01X14168Y36916D02*
G01X14114Y37020D01*
G01X13959Y37177D01*
G01X15049Y37177D01*
G01X13959Y37830D02*
G01X14010Y37675D01*
G01X14168Y37571D01*
G01X14427Y37520D01*
G01X14582Y37520D01*
G01X14843Y37571D01*
G01X14998Y37675D01*
G01X15049Y37830D01*
G01X15049Y37934D01*
G01X14998Y38092D01*
G01X14843Y38196D01*
G01X14582Y38247D01*
G01X14427Y38247D01*
G01X14168Y38196D01*
G01X14010Y38092D01*
G01X13959Y37934D01*
G01X13959Y37830D01*
G01X13345Y23876D02*
G01X12565Y23876D01*
G01X12410Y23825D01*
G01X12306Y23721D01*
G01X12255Y23563D01*
G01X12255Y23459D01*
G01X12306Y23304D01*
G01X12410Y23200D01*
G01X12565Y23149D01*
G01X13345Y23149D01*
G01X13136Y22806D02*
G01X13190Y22702D01*
G01X13345Y22545D01*
G01X12255Y22545D01*
G01X13472Y9271D02*
G01X12692Y9271D01*
G01X12537Y9220D01*
G01X12433Y9116D01*
G01X12382Y8958D01*
G01X12382Y8854D01*
G01X12433Y8699D01*
G01X12537Y8595D01*
G01X12692Y8544D01*
G01X13472Y8544D01*
G01X13472Y8097D02*
G01X13472Y7526D01*
G01X13055Y7835D01*
G01X13055Y7680D01*
G01X13004Y7576D01*
G01X12954Y7526D01*
G01X12796Y7472D01*
G01X12692Y7472D01*
G01X12537Y7526D01*
G01X12433Y7630D01*
G01X12382Y7785D01*
G01X12382Y7940D01*
G01X12433Y8097D01*
G01X12484Y8148D01*
G01X12588Y8201D01*
G54D19*
G75*
G01X17584Y28154D02*
G03X17578Y28021I-1500J2D01*
G01*
G75*
G01X17584Y3262D02*
G03X17578Y3129I-1500J2D01*
G01*
G75*
G01X69098Y3262D02*
G03X69092Y3129I-1500J-1D01*
G01*
G75*
G01X69098Y28154D02*
G03X69092Y28021I-1500J-1D01*
G01*
M00*
M02*
