;Layer: Drill PTH
;EasyEDA v6.4.5, 2020-09-15T17:45:32--6:00
;ee41db2f30d448a8b63ff783f68df95d,ded4796badf941d083ba3d0fd9e507c2,10
;Gerber Generator version 0.2
M48
METRIC,LZ,000.000
;Holesize 1 = 0.310 METRIC
T01C0.310
;Holesize 2 = 0.914 METRIC
T02C0.914
;Holesize 3 = 1.000 METRIC
T03C1.000
;Holesize 4 = 1.600 METRIC
T04C1.600
%
G05
G90
T01
X+040406Y+035323
T02
X+043053Y+040417
X+043053Y+031718
X+039751Y+031718
X+039751Y+040417
X+033147Y+031718
X+033147Y+040417
X+029845Y+031718
X+029845Y+040417
X+023241Y+031718
X+023241Y+040417
X+019939Y+031718
X+019939Y+040417
X+036449Y+031718
X+036449Y+040417
X+026543Y+031718
X+026543Y+040417
X+016637Y+031718
X+016637Y+040417
T03
X+047371Y+032893
X+049911Y+032893
X+062611Y+032893
X+065151Y+032893
X+052451Y+032893
X+054991Y+032893
X+060071Y+032893
X+057531Y+032893
X+067691Y+032893
X+067691Y+040513
X+065151Y+040513
X+062611Y+040513
X+060071Y+040513
X+057531Y+040513
X+054991Y+040513
X+052451Y+040513
X+049911Y+040513
X+047371Y+040513
X+018843Y+003018G85X+018844Y+003018
X+021383Y+003018G85X+021384Y+003018
X+023923Y+003018G85X+023924Y+003018
X+026463Y+003018G85X+026464Y+003018
X+029003Y+003018G85X+029004Y+003018
X+031543Y+003018G85X+031544Y+003018
X+034083Y+003018G85X+034084Y+003018
X+036623Y+003018G85X+036624Y+003018
X+039163Y+003018G85X+039164Y+003018
X+041703Y+003018G85X+041704Y+003018
X+044243Y+003018G85X+044244Y+003018
X+046783Y+003018G85X+046784Y+003018
X+049323Y+003018G85X+049324Y+003018
X+051863Y+003018G85X+051864Y+003018
X+054403Y+003018G85X+054404Y+003018
X+056943Y+003018G85X+056944Y+003018
X+059483Y+003018G85X+059484Y+003018
X+062023Y+003018G85X+062024Y+003018
X+064563Y+003018G85X+064564Y+003018
X+018843Y+028461G85X+018844Y+028461
X+021383Y+028461G85X+021384Y+028461
X+023923Y+028461G85X+023924Y+028461
X+026463Y+028461G85X+026464Y+028461
X+029003Y+028461G85X+029004Y+028461
X+031543Y+028461G85X+031544Y+028461
X+034083Y+028461G85X+034084Y+028461
X+036623Y+028461G85X+036624Y+028461
X+039163Y+028461G85X+039164Y+028461
X+041703Y+028461G85X+041704Y+028461
X+044243Y+028461G85X+044244Y+028461
X+046783Y+028461G85X+046784Y+028461
X+049323Y+028461G85X+049324Y+028461
X+051863Y+028461G85X+051864Y+028461
X+054403Y+028461G85X+054404Y+028461
X+056943Y+028461G85X+056944Y+028461
X+059483Y+028461G85X+059484Y+028461
X+062023Y+028461G85X+062024Y+028461
X+064563Y+028461G85X+064564Y+028461
T04
X+006858Y+028448
X+006858Y+023368
X+006858Y+018288
X+006985Y+011303
X+006985Y+006223
M30
