G04 Layer: TopSilkLayer*
G04 EasyEDA v6.4.5, 2020-09-16T10:22:01--6:00*
G04 ded4796badf941d083ba3d0fd9e507c2,10*
G04 Gerber Generator version 0.2*
G04 Scale: 100 percent, Rotated: No, Reflected: No *
G04 Dimensions in inches *
G04 leading zeros omitted , absolute positions ,2 integer and 4 decimal *
%FSLAX24Y24*%
%MOIN*%
G90*
G70D02*

%ADD10C,0.010000*%
%ADD13C,0.006000*%

%LPD*%
G54D10*
G01X9164Y3120D02*
G01X5270Y3120D01*
G01X9164Y3120D02*
G01X9164Y7057D01*
G01X9152Y7057D02*
G01X5235Y7057D01*
G01X5235Y3120D02*
G01X5235Y7057D01*
G01X9164Y4050D02*
G01X5235Y4050D01*
G01X9400Y3399D02*
G01X9163Y3399D01*
G01X9400Y3867D02*
G01X9400Y3399D01*
G01X9163Y3867D02*
G01X9400Y3867D01*
G01X9400Y6850D02*
G01X9400Y6399D01*
G01X9163Y6399D01*
G01X9163Y6850D02*
G01X9400Y6850D01*
G01X5551Y6561D02*
G01X5993Y7003D01*
G01X5993Y7042D01*
G01X6483Y7042D02*
G01X6964Y6561D01*
G01X7013Y6561D01*
G01X7543Y6561D02*
G01X8023Y7041D01*
G01X8023Y7042D01*
G01X8413Y7042D02*
G01X8883Y6572D01*
G01X8883Y6561D01*
G01X9164Y6561D02*
G01X5235Y6561D01*
G01X9164Y6021D02*
G01X9151Y6035D01*
G01X5235Y6035D01*
G01X9164Y3581D02*
G01X5235Y3581D01*
G01X4079Y6664D02*
G01X4079Y735D01*
G01X4079Y6664D02*
G01X142Y6664D01*
G01X142Y6652D02*
G01X142Y747D01*
G01X4079Y735D02*
G01X142Y735D01*
G01X3150Y6664D02*
G01X3150Y735D01*
G01X3800Y6900D02*
G01X3800Y6663D01*
G01X3332Y6900D02*
G01X3800Y6900D01*
G01X3332Y6663D02*
G01X3332Y6900D01*
G01X350Y6900D02*
G01X800Y6900D01*
G01X800Y6663D01*
G01X350Y6663D02*
G01X350Y6900D01*
G01X4079Y3926D02*
G01X4079Y3436D01*
G01X638Y2443D02*
G01X157Y1962D01*
G01X157Y1923D01*
G01X157Y1463D02*
G01X627Y993D01*
G01X638Y993D01*
G01X638Y3051D02*
G01X196Y3493D01*
G01X157Y3493D01*
G01X157Y3983D02*
G01X638Y4464D01*
G01X638Y4513D01*
G01X638Y5043D02*
G01X158Y5523D01*
G01X157Y5523D01*
G01X157Y5913D02*
G01X627Y6383D01*
G01X638Y6383D01*
G01X638Y756D02*
G01X638Y6634D01*
G01X1178Y6664D02*
G01X1164Y6651D01*
G01X1164Y735D01*
G01X3618Y6664D02*
G01X3618Y735D01*
G01X10370Y485D02*
G01X10370Y6414D01*
G01X10370Y485D02*
G01X14307Y485D01*
G01X14307Y497D02*
G01X14307Y6402D01*
G01X10370Y6414D02*
G01X14307Y6414D01*
G01X11300Y485D02*
G01X11300Y6414D01*
G01X10649Y250D02*
G01X10649Y486D01*
G01X11117Y250D02*
G01X10649Y250D01*
G01X11117Y486D02*
G01X11117Y250D01*
G01X14100Y250D02*
G01X13649Y250D01*
G01X13649Y486D01*
G01X14100Y486D02*
G01X14100Y250D01*
G01X10370Y3223D02*
G01X10370Y3713D01*
G01X13811Y4706D02*
G01X14292Y5187D01*
G01X14292Y5226D01*
G01X14292Y5686D02*
G01X13822Y6156D01*
G01X13811Y6156D01*
G01X13811Y4098D02*
G01X14253Y3656D01*
G01X14292Y3656D01*
G01X14292Y3166D02*
G01X13811Y2685D01*
G01X13811Y2636D01*
G01X13811Y2106D02*
G01X14291Y1626D01*
G01X14292Y1626D01*
G01X14292Y1236D02*
G01X13822Y766D01*
G01X13811Y766D01*
G01X13811Y6393D02*
G01X13811Y515D01*
G01X13271Y485D02*
G01X13285Y498D01*
G01X13285Y6414D01*
G01X10831Y485D02*
G01X10831Y6414D01*
G54D13*
G01X7400Y2496D02*
G01X7400Y2803D01*
G01X7380Y2863D01*
G01X7339Y2905D01*
G01X7277Y2925D01*
G01X7235Y2925D01*
G01X7175Y2905D01*
G01X7134Y2863D01*
G01X7114Y2803D01*
G01X7114Y2496D01*
G01X6732Y2557D02*
G01X6753Y2515D01*
G01X6814Y2496D01*
G01X6856Y2496D01*
G01X6917Y2515D01*
G01X6957Y2578D01*
G01X6978Y2680D01*
G01X6978Y2782D01*
G01X6957Y2863D01*
G01X6917Y2905D01*
G01X6856Y2925D01*
G01X6835Y2925D01*
G01X6773Y2905D01*
G01X6732Y2863D01*
G01X6713Y2803D01*
G01X6713Y2782D01*
G01X6732Y2721D01*
G01X6773Y2680D01*
G01X6835Y2659D01*
G01X6856Y2659D01*
G01X6917Y2680D01*
G01X6957Y2721D01*
G01X6978Y2782D01*
G01X4703Y3900D02*
G01X4396Y3900D01*
G01X4336Y3880D01*
G01X4294Y3838D01*
G01X4275Y3776D01*
G01X4275Y3736D01*
G01X4294Y3675D01*
G01X4336Y3634D01*
G01X4396Y3613D01*
G01X4703Y3613D01*
G01X4703Y3273D02*
G01X4417Y3478D01*
G01X4417Y3171D01*
G01X4703Y3273D02*
G01X4275Y3273D01*
G01X9746Y3250D02*
G01X10052Y3250D01*
G01X10114Y3269D01*
G01X10155Y3311D01*
G01X10175Y3373D01*
G01X10175Y3413D01*
G01X10155Y3475D01*
G01X10114Y3515D01*
G01X10052Y3536D01*
G01X9746Y3536D01*
G01X9746Y3917D02*
G01X9746Y3711D01*
G01X9930Y3692D01*
G01X9910Y3711D01*
G01X9889Y3773D01*
G01X9889Y3834D01*
G01X9910Y3896D01*
G01X9950Y3936D01*
G01X10011Y3957D01*
G01X10052Y3957D01*
G01X10114Y3936D01*
G01X10155Y3896D01*
G01X10175Y3834D01*
G01X10175Y3773D01*
G01X10155Y3711D01*
G01X10135Y3692D01*
G01X10093Y3671D01*
M00*
M02*
